<svg viewBox="0 0 484 484" fill="none" xmlns="http://www.w3.org/2000/svg">
  <defs>
    <linearGradient id="horizonBrandGradient" x1="0%" y1="0%" x2="0%" y2="100%">
      <stop offset="0%" stop-color="#fd5c53"/>
      <stop offset="100%" stop-color="#FC7154"/>
    </linearGradient>
  </defs>

  <!-- Sun/Sky -->
  <path
    d="M0 0 C0.91645798 -0.0033284 1.83291595 -0.0066568 2.77714539 -0.01008606 C4.71088159 -0.01512148 6.64462639 -0.01749544 8.57836914 -0.01733398 C11.465813 -0.01949686 14.35285907 -0.03762361 17.24023438 -0.05664062 C26.55733117 -0.08544786 35.77812217 0.14088995 45.0546875 1.0546875 C45.84555252 1.13241898 46.63641754 1.21015045 47.45124817 1.29023743 C52.80216096 1.87749928 57.96348066 2.93578883 63.19921875 4.16796875 C64.92701615 4.50832829 66.65591157 4.84326121 68.38671875 5.16796875 C72.11745199 5.90376822 75.60392015 6.91743011 79.19921875 8.16796875 C81.85714675 8.87610285 84.52504656 9.52247891 87.19921875 10.16796875 C87.19921875 10.82796875 87.19921875 11.48796875 87.19921875 12.16796875 C88.68421875 11.67296875 88.68421875 11.67296875 90.19921875 11.16796875 C90.19921875 11.82796875 90.19921875 12.48796875 90.19921875 13.16796875 C91.34390625 13.13703125 91.34390625 13.13703125 92.51171875 13.10546875 C95.19921875 13.16796875 95.19921875 13.16796875 98.19921875 14.16796875 C98.19921875 14.82796875 98.19921875 15.48796875 98.19921875 16.16796875 C99.84921875 16.16796875 101.49921875 16.16796875 103.19921875 16.16796875 C103.19921875 16.82796875 103.19921875 17.48796875 103.19921875 18.16796875 C104.37484375 18.13703125 104.37484375 18.13703125 105.57421875 18.10546875 C108.19921875 18.16796875 108.19921875 18.16796875 110.19921875 19.16796875 C110.19921875 19.82796875 110.19921875 20.48796875 110.19921875 21.16796875 C111.02583008 21.4155896 111.02583008 21.4155896 111.86914062 21.66821289 C117.51368076 23.44202282 122.55495277 25.69678418 127.69921875 28.60546875 C128.4675 29.03649902 129.23578125 29.4675293 130.02734375 29.91162109 C182.88355779 60.19382705 222.32504993 110.80388057 238.92285156 169.28295898 C240.76137343 176.0880589 242.31853582 182.9311102 243.63671875 189.85546875 C243.80091309 190.70318848 243.96510742 191.5509082 244.13427734 192.42431641 C245.3799149 199.58150151 245.19921875 205.63128277 245.19921875 213.16796875 C91.74921875 213.16796875 -61.70078125 213.16796875 -219.80078125 213.16796875 C-219.80078125 205.06499363 -219.610067 198.05152835 -218.17578125 190.23046875 C-217.91063721 188.75501587 -217.91063721 188.75501587 -217.64013672 187.24975586 C-210.68165829 150.25137799 -194.6195835 115.32158159 -170.80078125 86.16796875 C-170.38538086 85.65105469 -169.96998047 85.13414063 -169.54199219 84.6015625 C-158.63716156 71.05994216 -146.51566583 58.82249417 -132.53369141 48.46533203 C-130.82209603 47.18392631 -129.14444456 45.86694359 -127.46875 44.5390625 C-92.20709322 17.04854206 -44.84025009 0.05848118 0 0 Z"
    fill="#FC7154"
    transform="translate(229.80078125,12.83203125)"
  />

  <!-- Horizon band 1 -->
  <path
    d="M0 0 C153.45 0 306.9 0 465 0 C465 32 465 32 464 34 C311.21 34 158.42 34 1 34 C-1.74992573 23.00029709 0 11.33823423 0 0 Z"
    fill="#FE8F55"
    transform="translate(10,240)"
  />

  <!-- Horizon band 2 -->
  <path
    d="M0 0 C150.81 0 301.62 0 457 0 C454.59729676 10.21148879 452.24382925 20.07871373 449 30 C448.01 30 447.02 30 446 30 C446.33 28.02 446.66 26.04 447 24 C301.47 24 155.94 24 6 24 C0 2 0 2 0 0 Z"
    fill="#FD9555"
    transform="translate(14,291)"
  />

  <!-- Water band 1 -->
  <path
    d="M0 0 C139.92 0 279.84 0 424 0 C422.18717767 9.06411163 416.45467207 16.90059624 412 25 C280.33 25 148.66 25 13 25 C0 2.25 0 2.25 0 0 Z"
    fill="#087BA0"
    transform="translate(30,338)"
  />

  <!-- Water band 2 -->
  <path
    d="M0 0 C117.48 0 234.96 0 356 0 C354.15266348 3.69467305 352.44353079 5.93134205 349.6875 8.9375 C348.92824219 9.77152344 348.16898437 10.60554688 347.38671875 11.46484375 C346.59910156 12.30144531 345.81148438 13.13804687 345 14 C344.38872631 14.86252695 343.77745262 15.7250539 343.14765549 16.61371803 C338.20654923 20.3596403 333.29402302 19.73024363 327.25079346 19.71566772 C325.28389608 19.74006784 325.28389608 19.74006784 323.2772634 19.76496089 C319.63859725 19.80914188 316.00039204 19.82200467 312.36149001 19.82953191 C308.43604745 19.84290789 304.51088775 19.88470968 300.58561707 19.92236328 C291.10448994 20.00685336 281.62339696 20.04355488 272.14197314 20.0760054 C267.6722251 20.09251581 263.20250566 20.11461835 258.73278046 20.13634109 C243.86464128 20.20695265 228.99653198 20.26682714 214.12823868 20.29146385 C212.70085927 20.29386528 212.70085927 20.29386528 211.24464391 20.29631523 C210.29081902 20.29791754 209.33699413 20.29951984 208.35426545 20.30117071 C206.42156105 20.30443812 204.48885668 20.3077263 202.55615234 20.31103516 C201.59747056 20.31266693 200.63878877 20.3142987 199.65105602 20.31597991 C184.13927666 20.34438953 168.6289556 20.4473354 153.11777321 20.58227508 C137.1764031 20.71982634 121.23576726 20.79298484 105.29379725 20.80285609 C96.3492959 20.80991927 87.40679461 20.84432668 78.46286774 20.95023727 C70.840916 21.04022984 63.22151786 21.07112474 55.59911487 21.0270894 C51.71460488 21.00638583 47.83528316 21.01221911 43.95145988 21.09378433 C18.33517228 21.60256066 18.33517228 21.60256066 8.79406142 12.8756758 C0 3.64098035 0 3.64098035 0 0 Z"
    fill="#0D859D"
    transform="translate(64,390)"
  />

  <!-- Water band 3 -->
  <path
    d="M0 0 C80.85 0 161.7 0 245 0 C245 0.66 245 1.32 245 2 C221.31827486 14.89650744 197.54694865 25.39029701 171 31 C169.19438599 31.4017041 169.19438599 31.4017041 167.35229492 31.81152344 C153.36426744 34.67481865 139.28483841 34.52258004 125.06054688 34.49743652 C121.76606754 34.50166331 118.47198754 34.54912335 115.17773438 34.5859375 C73.16525604 34.78262085 36.49673561 21.84380771 0 2 C0 1.34 0 0.68 0 0 Z"
    fill="#0F899B"
    transform="translate(120,437)"
  />
</svg>
